<?xml version="1.0" encoding="UTF-8"?>
<svg version="1.1" xmlns="http://www.w3.org/2000/svg" width="375" height="278">
<path d="M0 0 C123.75 0 247.5 0 375 0 C375 91.74 375 183.48 375 278 C251.25 278 127.5 278 0 278 C0 186.26 0 94.52 0 0 Z " fill="#FDFDFB" transform="translate(0,0)"/>
<path d="M0 0 C4.17869905 3.52321684 8.13189037 7.13189037 12 11 C14.23152634 13.10352422 16.48961921 15.17756098 18.75 17.25 C24.92567568 22.92567568 24.92567568 22.92567568 26 24 C26.33 21.36 26.66 18.72 27 16 C33.93 16 40.86 16 48 16 C47.90976563 17.80984375 47.81953125 19.6196875 47.7265625 21.484375 C46.79525504 35.10915638 46.79525504 35.10915638 51.83203125 47.1484375 C54.70711556 49.77077602 57.88852743 51.86704143 61.21679688 53.87060547 C63.82075195 55.51982455 65.96165675 57.56576878 68.1875 59.6875 C74.16502328 65.11264489 80.38633065 70.26600673 86.82421875 75.13671875 C87.54222656 75.75160156 88.26023437 76.36648437 89 77 C89 77.66 89 78.32 89 79 C85.37 79 81.74 79 78 79 C78 91.87 78 104.74 78 118 C85.26 118 92.52 118 100 118 C100 119.65 100 121.3 100 123 C36.31 123 -27.38 123 -93 123 C-93 121.35 -93 119.7 -93 118 C-86.07 118 -79.14 118 -72 118 C-72.26683594 114.80183594 -72.53367187 111.60367188 -72.80859375 108.30859375 C-75.17972074 71.86837334 -75.17972074 71.86837334 -67.16015625 61.9375 C-62.74222945 56.9739893 -57.51703781 52.85077908 -52.01953125 49.14428711 C-45.04147759 44.18889859 -39.02730993 38.16298079 -33.02734375 32.08984375 C-32.30059952 31.3593129 -31.57385529 30.62878204 -30.8250885 29.87611389 C-28.52675535 27.56568108 -26.23171586 25.25202079 -23.9375 22.9375 C-20.90790767 19.88115631 -17.87491295 16.8282477 -14.83984375 13.77734375 C-14.15736069 13.08656235 -13.47487762 12.39578094 -12.77171326 11.68406677 C-8.67613509 7.56781389 -4.45724993 3.72262977 0 0 Z " fill="#073526" transform="translate(177,16)"/>
<path d="M0 0 C2.87381069 1.69919759 4.91675835 3.87525983 7.21875 6.2890625 C10.92895823 10.11640292 14.6973511 13.76744705 18.75 17.23046875 C21.66961164 19.77484862 24.50455327 22.40561652 27.34375 25.0390625 C32.00387151 29.35806926 36.69688052 33.63551492 41.4296875 37.875 C45.31914147 41.38149235 49.16438578 44.93568241 53.01171875 48.48828125 C55.68616584 51.03414129 55.68616584 51.03414129 57.76473999 52.37889099 C60.60397979 54.4001239 62.63676879 55.95653641 63.582901 59.39793396 C63.77779818 62.08219742 63.75709516 64.68586993 63.65234375 67.375 C63.64529419 68.23391846 63.63824463 69.09283691 63.63098145 69.9777832 C63.59454261 73.16554828 63.4968108 76.3523757 63.40625 79.5390625 C63.261875 86.6753125 63.1175 93.8115625 62.96875 101.1640625 C40.85875 101.1640625 18.74875 101.1640625 -4.03125 101.1640625 C-4.03125 82.0240625 -4.03125 62.8840625 -4.03125 43.1640625 C-17.56125 43.1640625 -31.09125 43.1640625 -45.03125 43.1640625 C-40.71792663 38.1318519 -36.44366777 33.39391927 -31.78125 28.7265625 C-30.84539062 27.77233398 -30.84539062 27.77233398 -29.890625 26.79882812 C-29.2925 26.19876953 -28.694375 25.59871094 -28.078125 24.98046875 C-27.54026367 24.43849854 -27.00240234 23.89652832 -26.44824219 23.33813477 C-25.03125 22.1640625 -25.03125 22.1640625 -23.03125 22.1640625 C-22.70125 21.1740625 -22.37125 20.1840625 -22.03125 19.1640625 C-20.60546875 17.76171875 -20.60546875 17.76171875 -18.71875 16.2265625 C-15.98661525 13.93907897 -13.42899274 11.58088345 -10.97265625 9.00390625 C-10.44518799 8.45404053 -9.91771973 7.9041748 -9.37426758 7.33764648 C-8.32086045 6.2309636 -7.27746926 5.11465089 -6.24487305 3.98852539 C-2.6248914 0.21201046 -2.6248914 0.21201046 0 0 Z " fill="#004A2C" transform="translate(187.03125,32.8359375)"/>
<path d="M0 0 C19 0 19 0 28 3 C32.36369477 7.47278714 33.35344461 10.66842971 33.28515625 16.74609375 C32.8601083 20.10571934 31.42183315 21.71271314 29 24 C27.67483577 25.01080045 26.34275169 26.01268258 25 27 C25.6496875 27.91523438 26.299375 28.83046875 26.96875 29.7734375 C27.81274508 30.97378605 28.65648173 32.17431634 29.5 33.375 C29.92925781 33.97828125 30.35851562 34.5815625 30.80078125 35.203125 C34 39.7734375 34 39.7734375 34 42 C30.40205212 42.86262275 27.55834871 43.11993808 24 42 C21.92768146 39.30561782 20.37789672 36.77986981 18.953125 33.7121582 C18.00693201 31.67092495 18.00693201 31.67092495 16 29 C12.37433225 27.97885331 12.37433225 27.97885331 9 28 C9 32.62 9 37.24 9 42 C6.03 42 3.06 42 0 42 C0 28.14 0 14.28 0 0 Z " fill="#132F2A" transform="translate(96,156)"/>
<path d="M0 0 C3.3 0 6.6 0 10 0 C12.283029 5.65823843 14.56157636 11.31825237 16.8359375 16.97998047 C17.61073993 18.90691151 18.38677795 20.8333462 19.1640625 22.75927734 C20.27927477 25.52312612 21.39007242 28.28871296 22.5 31.0546875 C22.84998047 31.9193161 23.19996094 32.7839447 23.56054688 33.67477417 C23.88087891 34.47545319 24.20121094 35.2761322 24.53125 36.10107422 C24.81548828 36.8072287 25.09972656 37.51338318 25.39257812 38.24093628 C26 40 26 40 26 42 C23.03 42 20.06 42 17 42 C16.01 39.03 15.02 36.06 14 33 C8.06 33.33 2.12 33.66 -4 34 C-4.99 36.64 -5.98 39.28 -7 42 C-9.97 42 -12.94 42 -16 42 C-15.29479948 37.38172767 -13.62245271 33.22793257 -11.875 28.92578125 C-11.41456299 27.77821602 -11.41456299 27.77821602 -10.94482422 26.60746765 C-9.96724841 24.17416679 -8.98360766 21.74336795 -8 19.3125 C-7.33816422 17.66616731 -6.67670181 16.01968447 -6.015625 14.37304688 C-1.19683189 2.39366378 -1.19683189 2.39366378 0 0 Z " fill="#112E28" transform="translate(155,156)"/>
<path d="M0 0 C2.43954973 1.40144346 4.18087697 2.5175539 5.9375 4.6875 C3.9575 6.3375 1.9775 7.9875 -0.0625 9.6875 C-1.238125 9.171875 -2.41375 8.65625 -3.625 8.125 C-7.90365682 6.4928564 -10.64285721 6.67466519 -15.0625 7.6875 C-15.19690778 10.11669865 -15.19690778 10.11669865 -14.0625 12.6875 C-11.3447918 13.92715637 -8.89778359 14.84034273 -6.0625 15.6875 C3.35222985 18.75788938 3.35222985 18.75788938 5.9375 22.6875 C7.32022605 27.42311078 7.48000588 30.60248823 5.25 35.0625 C0.78231933 40.1339213 -2.14722965 41.49314864 -8.8125 41.9375 C-15.27294113 41.85328568 -20.72895853 39.18763659 -26.0625 35.6875 C-25.11274762 33.31311905 -24.30263002 31.88474966 -22.3125 30.25 C-20.0625 29.6875 -20.0625 29.6875 -17.4375 31.0625 C-12.90214746 33.24618826 -9.00762705 32.95137042 -4.0625 32.6875 C-3.7325 31.0375 -3.4025 29.3875 -3.0625 27.6875 C-6.65351365 25.34409955 -9.94367717 24.02553852 -14.0625 22.875 C-19.57164388 21.07706511 -22.2892509 19.83781975 -25.0625 14.6875 C-25.79826604 10.47356725 -26.05270949 8.29659042 -23.8125 4.65625 C-17.96959447 -2.47209474 -8.54524865 -3.4949518 0 0 Z " fill="#112E28" transform="translate(272.0625,157.3125)"/>
<path d="M0 0 C0 16.17 0 32.34 0 49 C19.47 49 38.94 49 59 49 C59 50.65 59 52.3 59 54 C36.56 54 14.12 54 -9 54 C-9.165 46.575 -9.33 39.15 -9.5 31.5 C-9.57283203 29.17130859 -9.64566406 26.84261719 -9.72070312 24.44335938 C-9.74408967 22.57686031 -9.76447033 20.71032015 -9.78125 18.84375 C-9.82217773 17.89145508 -9.86310547 16.93916016 -9.90527344 15.95800781 C-9.91117838 10.25974048 -9.06901556 7.44912893 -5.01367188 3.32226562 C-1.28325939 0 -1.28325939 0 0 0 Z " fill="#F9F9F7" transform="translate(120,80)"/>
<path d="M0 0 C4.03659924 3.3446108 6.93110774 6.67589782 7.5625 11.9375 C7.09148301 16.80467554 5.3985705 20.13666929 2.1875 23.8125 C-2.37494754 26.81206657 -7.56111251 26.42135652 -12.8125 25.8125 C-16.70174158 24.0067807 -18.32415031 22.54502453 -20.6875 19 C-22.00777938 15.25920843 -22.30527138 12.75467103 -21.8125 8.8125 C-16.92574978 0.05005133 -9.87311223 -4.16864739 0 0 Z " fill="#17312C" transform="translate(313.8125,212.1875)"/>
<path d="M0 0 C3.98256817 3.6311651 5.83415235 7.16009771 6.6875 12.375 C5.96015507 16.98151787 4.19498391 20.42317631 1.125 23.9375 C-3.4288399 26.94750079 -8.62655588 26.4366091 -13.875 25.9375 C-17.07056529 24.67258874 -18.41059295 23.44994916 -20.6875 20.9375 C-22.52973845 16.28342392 -22.65563124 11.86704172 -21.875 6.9375 C-17.63173332 -1.58271008 -8.34262443 -3.08314381 0 0 Z " fill="#152F2A" transform="translate(58.875,212.0625)"/>
<path d="M0 0 C3.66420198 -1.03270828 6.37595087 -1.26816657 10 0 C13.71483999 3.9420882 19 11.54237003 19 17 C19.66 17 20.32 17 21 17 C21.26683594 16.29359375 21.53367188 15.5871875 21.80859375 14.859375 C23.05482596 11.86841769 24.50135246 9.08845007 26.0625 6.25 C26.58972656 5.28578125 27.11695313 4.3215625 27.66015625 3.328125 C29 1 29 1 30 0 C31.68608966 -0.07205511 33.37500659 -0.08386068 35.0625 -0.0625 C35.98160156 -0.05347656 36.90070313 -0.04445312 37.84765625 -0.03515625 C38.55792969 -0.02355469 39.26820313 -0.01195312 40 0 C39.17185431 1.47345402 38.34284305 2.94642677 37.51000977 4.41723633 C36.78691872 5.69503187 36.06742765 6.97487045 35.35131836 8.2565918 C33.14590003 12.15818702 30.740674 15.71196732 28.0625 19.3125 C23.4995212 26.21919064 23.93427296 33.99069109 24 42 C21.03 42 18.06 42 15 42 C15.09023437 41.03964844 15.18046875 40.07929688 15.2734375 39.08984375 C15.85992235 24.97394127 9.04477768 15.39224879 1.26928711 4.06860352 C0 2 0 2 0 0 Z " fill="#13302A" transform="translate(181,156)"/>
<path d="M0 0 C3.16115776 1.36983503 3.9927092 1.9890638 6 5 C5.03425049 5.88631104 4.06850098 6.77262207 3.07348633 7.68579102 C-4.21822319 14.42449557 -11.32877387 21.27319566 -18.17578125 28.46484375 C-19.53148518 29.87474896 -20.88760574 31.28425366 -22.24414062 32.69335938 C-24.30331987 34.83325192 -26.35205466 36.97992643 -28.37719727 39.15209961 C-39.84148199 51.41170467 -39.84148199 51.41170467 -45.42724609 52.93408203 C-48.14309018 52.94059693 -50.39588382 52.74349454 -53 52 C-52.35071533 51.35144043 -51.70143066 50.70288086 -51.0324707 50.03466797 C-47.96530005 46.96756448 -44.90542145 43.89321846 -41.84501648 40.81936646 C-38.50747643 37.46840845 -35.16726155 34.1201221 -31.8269043 30.77197266 C-30.07176942 29.01180501 -28.31753257 27.25074143 -26.56420898 25.48876953 C-24.01786006 22.93021422 -21.4682273 20.37497018 -18.91796875 17.8203125 C-17.75662666 16.65122849 -17.75662666 16.65122849 -16.57182312 15.45852661 C-12.39002023 11.27629921 -8.12511961 7.26318302 -3.63179016 3.41647339 C-2.37664347 2.32694489 -1.1752586 1.1752586 0 0 Z " fill="#F4F5F2" transform="translate(177,24)"/>
<path d="M0 0 C2.206875 -0.061875 4.41375 -0.12375 6.6875 -0.1875 C8.54955078 -0.23970703 8.54955078 -0.23970703 10.44921875 -0.29296875 C15.20179198 0.09915775 17.68203836 1.68203836 21 5 C21.56921087 12.17205692 21.56921087 12.17205692 19.625 15 C18 16 18 16 16 16 C16.61875 17.0725 17.2375 18.145 17.875 19.25 C19.3323679 21.79780984 20.72924491 24.35259355 22 27 C19.375 27.5625 19.375 27.5625 16 27 C14.25519497 24.79603575 12.92463959 22.53868028 11.58984375 20.06640625 C10.13288577 17.75267093 10.13288577 17.75267093 7.31640625 17.21484375 C6.55199219 17.14394531 5.78757813 17.07304687 5 17 C5 20.3 5 23.6 5 27 C3.35 27 1.7 27 0 27 C0 18.09 0 9.18 0 0 Z " fill="#112B26" transform="translate(159,211)"/>
<path d="M0 0 C6 0 6 0 7.56738281 1.23754883 C7.94217773 1.80497803 8.31697266 2.37240723 8.703125 2.95703125 C9.1259375 3.57513672 9.54875 4.19324219 9.984375 4.83007812 C10.40203125 5.48427734 10.8196875 6.13847656 11.25 6.8125 C11.683125 7.45509766 12.11625 8.09769531 12.5625 8.75976562 C13.7270859 10.49406407 14.86487718 12.24627608 16 14 C16.99 15.485 16.99 15.485 18 17 C18.33 11.39 18.66 5.78 19 0 C20.65 0 22.3 0 24 0 C24 8.91 24 17.82 24 27 C18 27 18 27 16.30908203 25.62304688 C15.87966309 24.99462891 15.45024414 24.36621094 15.0078125 23.71875 C14.29238281 22.70361328 14.29238281 22.70361328 13.5625 21.66796875 C13.088125 20.95253906 12.61375 20.23710937 12.125 19.5 C11.62742187 18.78457031 11.12984375 18.06914062 10.6171875 17.33203125 C9.39345611 15.56703405 8.19428567 13.78505332 7 12 C6.67 16.95 6.34 21.9 6 27 C4.02 27 2.04 27 0 27 C0 18.09 0 9.18 0 0 Z " fill="#15302B" transform="translate(72,211)"/>
<path d="M0 0 C1.65 0 3.3 0 5 0 C5 8.91 5 17.82 5 27 C-1 27 -1 27 -2.58325195 25.73071289 C-2.96441162 25.1505542 -3.34557129 24.57039551 -3.73828125 23.97265625 C-4.37926758 23.03196289 -4.37926758 23.03196289 -5.03320312 22.07226562 C-5.45537109 21.40904297 -5.87753906 20.74582031 -6.3125 20.0625 C-7.18353048 18.76167638 -8.05462112 17.46089304 -8.92578125 16.16015625 C-9.95251953 14.59587891 -9.95251953 14.59587891 -11 13 C-11.33 12.67 -11.66 12.34 -12 12 C-12.33 16.95 -12.66 21.9 -13 27 C-14.65 27 -16.3 27 -18 27 C-18 18.42 -18 9.84 -18 1 C-13 1 -13 1 -10.90234375 2.9765625 C-9.92974609 4.28753906 -9.92974609 4.28753906 -8.9375 5.625 C-8.28652344 6.48351562 -7.63554687 7.34203125 -6.96484375 8.2265625 C-4.92054093 11.11215892 -2.96161948 14.05757078 -1 17 C-0.67 11.39 -0.34 5.78 0 0 Z " fill="#142F29" transform="translate(347,211)"/>
<path d="M0 0 C1.98 0 3.96 0 6 0 C6.01458252 0.59538574 6.02916504 1.19077148 6.04418945 1.80419922 C6.11854344 4.49513051 6.21524187 7.18480333 6.3125 9.875 C6.33505859 10.81214844 6.35761719 11.74929687 6.38085938 12.71484375 C6.41630859 13.61074219 6.45175781 14.50664062 6.48828125 15.4296875 C6.51446533 16.25710449 6.54064941 17.08452148 6.56762695 17.93701172 C6.83096637 20.39327932 6.83096637 20.39327932 10 22 C13.63939932 21.68269476 13.63939932 21.68269476 17 21 C17.88639389 18.34081834 18.17989025 16.51935359 18.31640625 13.76953125 C18.35830078 12.96708984 18.40019531 12.16464844 18.44335938 11.33789062 C18.48267578 10.50451172 18.52199219 9.67113281 18.5625 8.8125 C18.60568359 7.96751953 18.64886719 7.12253906 18.69335938 6.25195312 C18.79931518 4.16815567 18.9001502 2.08409897 19 0 C20.65 0 22.3 0 24 0 C24.11660824 3.39554235 24.18738372 6.79056679 24.25 10.1875 C24.30027344 11.62706055 24.30027344 11.62706055 24.3515625 13.09570312 C24.45065136 20.25487292 24.45065136 20.25487292 22.12890625 24.09375 C18.71826743 27.14767981 16.07371831 27.86334494 11.5625 28.4375 C6.75062697 27.84656822 5.36588523 26.44416163 2 23 C0.19211001 20.04718939 -0.2418302 17.89543497 -0.1953125 14.453125 C-0.18886719 13.60878906 -0.18242187 12.76445312 -0.17578125 11.89453125 C-0.15902344 11.02183594 -0.14226562 10.14914063 -0.125 9.25 C-0.11597656 8.36183594 -0.10695312 7.47367188 -0.09765625 6.55859375 C-0.07414577 4.37211942 -0.04128499 2.18619906 0 0 Z " fill="#1D3630" transform="translate(188,211)"/>
<path d="M0 0 C3.5 1.5 3.5 1.5 6 3 C4.68 4.32 3.36 5.64 2 7 C1.34 6.67 0.68 6.34 0 6 C-2.3329866 5.95977609 -4.66706666 5.95679753 -7 6 C-7 6.99 -7 7.98 -7 9 C-6.24074219 9.24234375 -5.48148438 9.4846875 -4.69921875 9.734375 C-3.70535156 10.06953125 -2.71148437 10.4046875 -1.6875 10.75 C-0.70136719 11.07484375 0.28476563 11.3996875 1.30078125 11.734375 C4.25170491 13.11802083 5.37225272 14.21498388 7 17 C7.72793275 20.54867214 7.16332681 21.74656185 5.1875 24.8125 C0.56746919 27.98310938 -3.55153126 27.7841874 -9 27 C-12.1875 25.5 -12.1875 25.5 -14 24 C-13.34 22.68 -12.68 21.36 -12 20 C-11.34 20.33 -10.68 20.66 -10 21 C-6.13938967 22.28687011 -3.05849717 22.13757618 1 22 C0.74324087 19.50494008 0.74324087 19.50494008 -1 17 C-3.50575115 16.04460095 -5.96831751 15.43091894 -8.58984375 14.87109375 C-11.53039748 13.80830042 -12.42804902 12.66022473 -14 10 C-14.5625 7.5625 -14.5625 7.5625 -14 5 C-9.78165265 0.25435923 -6.29084272 -1.19825576 0 0 Z " fill="#17302B" transform="translate(118,211)"/>
<path d="M0 0 C3.125 1.5 3.125 1.5 5 3 C4.34 4.32 3.68 5.64 3 7 C2.505 6.835 2.01 6.67 1.5 6.5 C-2.13967202 5.7720656 -5.27676355 5.76360404 -9 6 C-11.17810469 7.56922543 -11.89334081 8.47823478 -12.43359375 11.12109375 C-12.4454059 16.10777913 -12.4454059 16.10777913 -10.375 20.5625 C-7.30056064 22.42334488 -5.54782834 22.43442796 -2 22 C0.78566059 21.08742694 0.78566059 21.08742694 3 20 C3.66 21.32 4.32 22.64 5 24 C0.97128126 27.22297499 -1.82842051 28.68157898 -7.046875 28.3828125 C-11.71921535 27.46703379 -14.40261872 24.7074252 -17.375 21.1875 C-19.31615304 17.37985365 -19.52821909 15.22575274 -19 11 C-15.58680669 1.51890747 -9.58970457 -1.53179973 0 0 Z " fill="#19332D" transform="translate(239,211)"/>
<path d="M0 0 C3.0625 1.3125 3.0625 1.3125 5 3 C5 3.99 5 4.98 5 6 C4.01 6.66 3.02 7.32 2 8 C1.29875 7.484375 0.5975 6.96875 -0.125 6.4375 C-3.68392876 4.65803562 -5.25019194 4.7772365 -9 6 C-11.78590678 8.41445254 -11.9821745 9.80035444 -12.3125 13.5 C-12.11510351 17.68289215 -12.11510351 17.68289215 -10 21 C-4.95263469 22.15841171 -1.69470803 22.49406364 3 20 C3.99 21.32 4.98 22.64 6 24 C0.96776445 26.92784614 -3.02774378 28.97727829 -9 28 C-13.22223195 25.82881162 -16.27200589 23.51560725 -18 19 C-18.62535941 14.64223235 -19.01372641 10.04764658 -17.01953125 6.01953125 C-12.28769956 0.12294099 -7.1733089 -0.84241706 0 0 Z " fill="#152F2A" transform="translate(25,211)"/>
<path d="M0 0 C2.375 1.5 2.375 1.5 4 4 C4.7751661 8.30296285 4.78167779 11.74931553 2.4375 15.5 C-0.84265499 17.51855692 -3.1477443 18 -7 18 C-9.80189446 16.23358828 -11.51524911 14.96950178 -13 12 C-13.39069343 7.85864965 -13.43382227 5.68813188 -11.1875 2.125 C-7.50859763 -1.44879087 -4.76887416 -1.26521151 0 0 Z " fill="#F8F8F6" transform="translate(55,216)"/>
<path d="M0 0 C2.46105628 2.13723309 3.75327448 3.73112591 4.3828125 6.96875 C4.57167746 10.34313736 4.26605451 12.58495496 2.4375 15.4375 C-0.83565762 17.53567796 -3.11417724 18 -7 18 C-9.80189446 16.23358828 -11.51524911 14.96950178 -13 12 C-13.39069343 7.85864965 -13.43382227 5.68813188 -11.1875 2.125 C-7.53205899 -1.42599984 -4.73777715 -1.35365062 0 0 Z " fill="#F9F9F7" transform="translate(311,216)"/>
<path d="M0 0 C7.26 0 14.52 0 22 0 C22 1.65 22 3.3 22 5 C19.36 5 16.72 5 14 5 C14 12.59 14 20.18 14 28 C12.02 28 10.04 28 8 28 C8 20.41 8 12.82 8 5 C5.36 5 2.72 5 0 5 C0 3.35 0 1.7 0 0 Z " fill="#273F3A" transform="translate(250,211)"/>
<path d="M0 0 C7.26 0 14.52 0 22 0 C22 1.65 22 3.3 22 5 C19.36 5 16.72 5 14 5 C14 12.26 14 19.52 14 27 C12.02 27 10.04 27 8 27 C8 19.74 8 12.48 8 5 C5.36 5 2.72 5 0 5 C0 3.35 0 1.7 0 0 Z " fill="#253E38" transform="translate(130,211)"/>
<path d="M0 0 C3.96 0 7.92 0 12 0 C12 6.27 12 12.54 12 19 C8.04 19 4.08 19 0 19 C0 12.73 0 6.46 0 0 Z " fill="#FDFDFB" transform="translate(214,97)"/>
<path d="M0 0 C11.47897324 -0.37028946 11.47897324 -0.37028946 13.86328125 1.32421875 C15.63321345 3.93350024 15.38278316 5.9377347 15 9 C13.86328125 10.67578125 13.86328125 10.67578125 12 12 C7.96740923 12.40487859 4.06287095 12.13106035 0 12 C0 8.04 0 4.08 0 0 Z " fill="#FCFCFA" transform="translate(105,164)"/>
<path d="M0 0 C2.7912125 1.98322993 3.82597224 3.12986121 4.5 6.5 C4 9 4 9 2.4375 11.375 C0 13 0 13 -3.625 12.875 C-7 12 -7 12 -9 10 C-9.55021834 3.94759825 -9.55021834 3.94759825 -7.875 1.0625 C-5.06487736 -0.52990283 -3.17235276 -0.45319325 0 0 Z " fill="#B78A3B" transform="translate(252,254)"/>
<path d="M0 0 C2 1.625 2 1.625 3 4 C2.92897215 7.4803645 2.61415498 9.29485909 0.3125 11.9375 C-2.83903422 13.38550221 -4.70949263 12.929926 -8 12 C-10 10 -10 10 -10.3125 6.5625 C-10 3 -10 3 -8.9375 1.0625 C-5.84506242 -0.63335287 -3.44485259 -0.43060657 0 0 Z " fill="#B58635" transform="translate(99,254)"/>
<path d="M0 0 C1.65 0 3.3 0 5 0 C5 8.91 5 17.82 5 27 C3.35 27 1.7 27 0 27 C0 18.09 0 9.18 0 0 Z " fill="#0C2621" transform="translate(279,211)"/>
<path d="M0 0 C2.97 0 5.94 0 9 0 C9.78137332 9.91475927 9.78137332 9.91475927 6.75 14.125 C4.35242604 15.75970952 2.85025556 16.68330494 0 17 C-0.33 16.01 -0.66 15.02 -1 14 C-0.01 13.34 0.98 12.68 2 12 C2.33 11.01 2.66 10.02 3 9 C2.01 9 1.02 9 0 9 C0 6.03 0 3.06 0 0 Z " fill="#1B342E" transform="translate(230,156)"/>
<path d="M0 0 C0.99 0 1.98 0 3 0 C3.33 2.31 3.66 4.62 4 7 C4.66 7 5.32 7 6 7 C6.33 5.02 6.66 3.04 7 1 C7.99 0.67 8.98 0.34 10 0 C10.99 1.98 11.98 3.96 13 6 C13.99 4.02 14.98 2.04 16 0 C16.66 0 17.32 0 18 0 C17.71517632 1.41805831 17.42181856 2.83440379 17.125 4.25 C16.96257812 5.03890625 16.80015625 5.8278125 16.6328125 6.640625 C16.00849925 8.96831144 15.15161458 10.89031952 14 13 C13.01 12.67 12.02 12.34 11 12 C10.67 10.02 10.34 8.04 10 6 C9.34 6 8.68 6 8 6 C7.67 7.98 7.34 9.96 7 12 C6.01 12.33 5.02 12.66 4 13 C3.32694982 11.39850114 2.66177773 9.79368971 2 8.1875 C1.62875 7.29417969 1.2575 6.40085937 0.875 5.48046875 C0 3 0 3 0 0 Z " fill="#BA8F45" transform="translate(157,254)"/>
<path d="M0 0 C3.83736322 0.95934081 4.59660228 1.23609263 7 4 C7.6496875 3.01 7.6496875 3.01 8.3125 2 C8.869375 1.34 9.42625 0.68 10 0 C10.99 0 11.98 0 13 0 C13 4.29 13 8.58 13 13 C12.01 13 11.02 13 10 13 C9.67 11.02 9.34 9.04 9 7 C8.01 7.66 7.02 8.32 6 9 C5.34 8.34 4.68 7.68 4 7 C3.67 8.98 3.34 10.96 3 13 C2.01 12.67 1.02 12.34 0 12 C0 8.04 0 4.08 0 0 Z " fill="#BD934C" transform="translate(106,254)"/>
<path d="M0 0 C3.15842999 2.57923366 3.99251691 5.35531286 5.1875 9.1875 C5.53167969 10.27417969 5.87585938 11.36085937 6.23046875 12.48046875 C6.48441406 13.31191406 6.73835937 14.14335937 7 15 C3.04 15 -0.92 15 -5 15 C-1.85714286 4.28571429 -1.85714286 4.28571429 0 0 Z " fill="#F5F5F3" transform="translate(159,167)"/>
<path d="M0 0 C0.99 0 1.98 0 3 0 C3.433125 0.9590625 3.433125 0.9590625 3.875 1.9375 C4.82823451 4.15206079 4.82823451 4.15206079 7 5 C7.66 3.35 8.32 1.7 9 0 C9.99 0 10.98 0 12 0 C12 4.29 12 8.58 12 13 C11.01 12.67 10.02 12.34 9 12 C8.67 10.35 8.34 8.7 8 7 C7.01 7.99 6.02 8.98 5 10 C4.34 9.01 3.68 8.02 3 7 C2.67 8.65 2.34 10.3 2 12 C1.34 12 0.68 12 0 12 C0 8.04 0 4.08 0 0 Z " fill="#BB8F45" transform="translate(261,254)"/>
<path d="M0 0 C0.99 0.103125 1.98 0.20625 3 0.3125 C5 3.3125 5 3.3125 4.75 6.375 C4 9.3125 4 9.3125 2 11.3125 C-3.56818182 10.74431818 -3.56818182 10.74431818 -5 9.3125 C-5.1875 5.875 -5.1875 5.875 -5 2.3125 C-3 0.3125 -3 0.3125 0 0 Z " fill="#44504C" transform="translate(292,111.6875)"/>
<path d="M0 0 C3.375 -0.125 3.375 -0.125 7 0 C9 2 9 2 9.375 4.9375 C9 8 9 8 7.3125 9.875 C5 11 5 11 0 11 C0 7.37 0 3.74 0 0 Z " fill="#192E28" transform="translate(89,112)"/>
<path d="M0 0 C3.3 0 6.6 0 10 0 C10 0.66 10 1.32 10 2 C7.69 2 5.38 2 3 2 C3 2.99 3 3.98 3 5 C4.98 5 6.96 5 9 5 C9 5.66 9 6.32 9 7 C7.02 7 5.04 7 3 7 C3 7.99 3 8.98 3 10 C5.31 10 7.62 10 10 10 C10 10.99 10 11.98 10 13 C6.7 13 3.4 13 0 13 C0 8.71 0 4.42 0 0 Z " fill="#BF9754" transform="translate(179,254)"/>
<path d="M0 0 C3.3 0 6.6 0 10 0 C10 0.66 10 1.32 10 2 C7.69 2 5.38 2 3 2 C3 2.99 3 3.98 3 5 C4.98 5 6.96 5 9 5 C9 5.66 9 6.32 9 7 C7.02 7 5.04 7 3 7 C3 7.99 3 8.98 3 10 C5.31 10 7.62 10 10 10 C9.67 10.99 9.34 11.98 9 13 C6.03 13 3.06 13 0 13 C0 8.71 0 4.42 0 0 Z " fill="#BF9753" transform="translate(193,254)"/>
<path d="M0 0 C1.45792884 -0.05399736 2.91642712 -0.09279177 4.375 -0.125 C5.18710938 -0.14820313 5.99921875 -0.17140625 6.8359375 -0.1953125 C9 0 9 0 11 2 C10.44444444 6.55555556 10.44444444 6.55555556 9 8 C7.48071962 8.07179964 5.95832518 8.08392007 4.4375 8.0625 C3.61121094 8.05347656 2.78492188 8.04445312 1.93359375 8.03515625 C1.29550781 8.02355469 0.65742188 8.01195312 0 8 C0 5.36 0 2.72 0 0 Z " fill="#F8F8F5" transform="translate(164,216)"/>
<path d="M0 0 C2.97 0 5.94 0 9 0 C9 0.66 9 1.32 9 2 C6.69 2 4.38 2 2 2 C2 2.99 2 3.98 2 5 C3.98 5 5.96 5 8 5 C8 5.66 8 6.32 8 7 C6.02 7 4.04 7 2 7 C2 7.99 2 8.98 2 10 C4.31 10 6.62 10 9 10 C9 10.99 9 11.98 9 13 C6.03 13 3.06 13 0 13 C0 8.71 0 4.42 0 0 Z " fill="#B07E27" transform="translate(278,254)"/>
<path d="M0 0 C2.97 0 5.94 0 9 0 C9 0.66 9 1.32 9 2 C6.69 2 4.38 2 2 2 C2 2.99 2 3.98 2 5 C3.98 5 5.96 5 8 5 C8 5.66 8 6.32 8 7 C6.02 7 4.04 7 2 7 C2 7.99 2 8.98 2 10 C4.31 10 6.62 10 9 10 C9 10.99 9 11.98 9 13 C6.03 13 3.06 13 0 13 C0 8.71 0 4.42 0 0 Z " fill="#AF7D27" transform="translate(124,254)"/>
<path d="M0 0 C2.5625 0.1875 2.5625 0.1875 4.5625 2.1875 C4.89911952 5.3517235 5.06193411 7.37263382 3.375 10.125 C1.5625 11.1875 1.5625 11.1875 -1.125 10.875 C-1.888125 10.648125 -2.65125 10.42125 -3.4375 10.1875 C-3.4375 9.5275 -3.4375 8.8675 -3.4375 8.1875 C-2.1175 8.1875 -0.7975 8.1875 0.5625 8.1875 C-1.0875 7.1975 -2.7375 6.2075 -4.4375 5.1875 C-3.32386364 0.25568182 -3.32386364 0.25568182 0 0 Z " fill="#6E7773" transform="translate(312.4375,111.8125)"/>
<path d="M0 0 C1.4540625 0.0309375 1.4540625 0.0309375 2.9375 0.0625 C2.9375 1.0525 2.9375 2.0425 2.9375 3.0625 C1.2875 2.7325 -0.3625 2.4025 -2.0625 2.0625 C-1.21683261 4.33423092 -1.21683261 4.33423092 1.4375 4.9375 C3.9375 6.0625 3.9375 6.0625 4.9375 8 C4.9375 10.0625 4.9375 10.0625 3.875 11.875 C1.9375 13.0625 1.9375 13.0625 -1.25 12.75 C-2.178125 12.523125 -3.10625 12.29625 -4.0625 12.0625 C-4.0625 11.0725 -4.0625 10.0825 -4.0625 9.0625 C-1.0925 9.5575 -1.0925 9.5575 1.9375 10.0625 C1.9375 9.4025 1.9375 8.7425 1.9375 8.0625 C1.15375 7.93875 0.37 7.815 -0.4375 7.6875 C-3.0625 7.0625 -3.0625 7.0625 -5.0625 5.0625 C-4.45789299 1.07209375 -4.2025713 0.08576676 0 0 Z " fill="#BB9046" transform="translate(149.0625,253.9375)"/>
<path d="M0 0 C1.98 0 3.96 0 6 0 C6 0.66 6 1.32 6 2 C4.68 2 3.36 2 2 2 C2 9.92 2 17.84 2 26 C2.99 26.33 3.98 26.66 5 27 C3.35 27 1.7 27 0 27 C0 18.09 0 9.18 0 0 Z " fill="#46544F" transform="translate(72,211)"/>
<path d="M0 0 C2.31 0 4.62 0 7 0 C7 0.66 7 1.32 7 2 C5.68 2 4.36 2 3 2 C3 2.66 3 3.32 3 4 C4.32 4 5.64 4 7 4 C7 4.66 7 5.32 7 6 C5.68 6 4.36 6 3 6 C3 6.66 3 7.32 3 8 C4.65 8 6.3 8 8 8 C8 8.99 8 9.98 8 11 C5.36 11 2.72 11 0 11 C0 7.37 0 3.74 0 0 Z " fill="#2B423B" transform="translate(56,112)"/>
<path d="M0 0 C0.66 0 1.32 0 2 0 C2 1.65 2 3.3 2 5 C3.98 5 5.96 5 8 5 C8 3.35 8 1.7 8 0 C8.66 0 9.32 0 10 0 C10 3.96 10 7.92 10 12 C9.34 12 8.68 12 8 12 C8 10.35 8 8.7 8 7 C6.02 7 4.04 7 2 7 C2 8.98 2 10.96 2 13 C1.34 13 0.68 13 0 13 C0 8.71 0 4.42 0 0 Z " fill="#B07F2A" transform="translate(74,254)"/>
<path d="M0 0 C0.66 0 1.32 0 2 0 C2 1.65 2 3.3 2 5 C3.98 5 5.96 5 8 5 C8 3.35 8 1.7 8 0 C8.66 0 9.32 0 10 0 C10 3.96 10 7.92 10 12 C9.34 12 8.68 12 8 12 C8 10.35 8 8.7 8 7 C6.02 7 4.04 7 2 7 C2 8.98 2 10.96 2 13 C1.34 13 0.68 13 0 13 C0 8.71 0 4.42 0 0 Z " fill="#B07E29" transform="translate(228,254)"/>
<path d="M0 0 C-0.33 0.66 -0.66 1.32 -1 2 C-3.0625 2.625 -3.0625 2.625 -5 3 C-2.525 3.99 -2.525 3.99 0 5 C-0.33 6.65 -0.66 8.3 -1 10 C-5.75 11.125 -5.75 11.125 -8 10 C-8 9.34 -8 8.68 -8 8 C-5.525 8.495 -5.525 8.495 -3 9 C-4.25541557 6.48916886 -5.50063488 6.12874554 -8 5 C-8 3.35 -8 1.7 -8 0 C-4.71023192 -1.09658936 -3.28696233 -0.79953138 0 0 Z " fill="#1E3730" transform="translate(75,112)"/>
<path d="M0 0 C1.65 0 3.3 0 5 0 C5.59732819 2.76264289 6 5.16032769 6 8 C6.33 8.99 6.66 9.98 7 11 C4.36 11 1.72 11 -1 11 C-0.42647107 7.12867972 1.48704352 4.91827204 4 2 C2.35 2.33 0.7 2.66 -1 3 C-0.67 2.01 -0.34 1.02 0 0 Z " fill="#576460" transform="translate(276,112)"/>
<path d="M0 0 C4.70588235 0.70588235 4.70588235 0.70588235 6 2 C6.125 4.5 6.125 4.5 6 7 C5 8 5 8 2.5625 8.1875 C0 8 0 8 -2 6 C-1.44444444 1.44444444 -1.44444444 1.44444444 0 0 Z " fill="#F9F9F6" transform="translate(247,256)"/>
<path d="M0 0 C4.70588235 0.70588235 4.70588235 0.70588235 6 2 C6.125 4.5 6.125 4.5 6 7 C5 8 5 8 2.5625 8.1875 C0 8 0 8 -2 6 C-1.44444444 1.44444444 -1.44444444 1.44444444 0 0 Z " fill="#F9F9F6" transform="translate(93,256)"/>
<path d="M0 0 C2.97 0 5.94 0 9 0 C9 0.66 9 1.32 9 2 C8.01 2 7.02 2 6 2 C6 4.97 6 7.94 6 11 C5.01 11 4.02 11 3 11 C3 8.03 3 5.06 3 2 C2.01 2 1.02 2 0 2 C0 1.34 0 0.68 0 0 Z " fill="#2B413B" transform="translate(77,112)"/>
<path d="M0 0 C0.99 0 1.98 0 3 0 C4.32 2.64 5.64 5.28 7 8 C6.34 8.66 5.68 9.32 5 10 C4.34 9.01 3.68 8.02 3 7 C2.67 8.65 2.34 10.3 2 12 C1.34 12 0.68 12 0 12 C0 8.04 0 4.08 0 0 Z " fill="#B58636" transform="translate(261,254)"/>
<path d="M0 0 C3.3 0 6.6 0 10 0 C10 0.66 10 1.32 10 2 C8.68 2 7.36 2 6 2 C6 5.63 6 9.26 6 13 C5.34 13 4.68 13 4 13 C4 9.37 4 5.74 4 2 C2.68 2 1.36 2 0 2 C0 1.34 0 0.68 0 0 Z " fill="#B07E28" transform="translate(206,254)"/>
<path d="M0 0 C0.66 0 1.32 0 2 0 C1.71517632 1.41805831 1.42181856 2.83440379 1.125 4.25 C0.96257812 5.03890625 0.80015625 5.8278125 0.6328125 6.640625 C0.00849925 8.96831144 -0.84838542 10.89031952 -2 13 C-2.99 12.67 -3.98 12.34 -5 12 C-4.25 6.25 -4.25 6.25 -2 4 C-1.30251417 2.68252676 -0.63040043 1.35085807 0 0 Z " fill="#C19C5D" transform="translate(173,254)"/>
<path d="M0 0 C0.78375 0.04125 1.5675 0.0825 2.375 0.125 C2.705 1.115 3.035 2.105 3.375 3.125 C1.725 2.795 0.075 2.465 -1.625 2.125 C-1.625 3.115 -1.625 4.105 -1.625 5.125 C0.025 4.795 1.675 4.465 3.375 4.125 C2.385 5.61 2.385 5.61 1.375 7.125 C-0.275 6.795 -1.925 6.465 -3.625 6.125 C-4.25 4.25 -4.25 4.25 -4.625 2.125 C-2.625 0.125 -2.625 0.125 0 0 Z " fill="#394642" transform="translate(312.625,111.875)"/>
<path d="M0 0 C1.32 0.33 2.64 0.66 4 1 C3.51566469 6.44877223 3.51566469 6.44877223 1.1875 8.9375 C-1 10 -1 10 -3.25 9.6875 C-3.8275 9.460625 -4.405 9.23375 -5 9 C-4.67 8.34 -4.34 7.68 -4 7 C-1.9375 6.375 -1.9375 6.375 0 6 C0 4.02 0 2.04 0 0 Z " fill="#BC9249" transform="translate(98,257)"/>
<path d="M0 0 C0.94875 0.04125 1.8975 0.0825 2.875 0.125 C2.875 1.115 2.875 2.105 2.875 3.125 C1.225 2.795 -0.425 2.465 -2.125 2.125 C-1.465 3.445 -0.805 4.765 -0.125 6.125 C-1.445 6.125 -2.765 6.125 -4.125 6.125 C-4.75 4.25 -4.75 4.25 -5.125 2.125 C-3.125 0.125 -3.125 0.125 0 0 Z " fill="#B68838" transform="translate(149.125,253.875)"/>
<path d="M0 0 C0.33 0.66 0.66 1.32 1 2 C0.071875 2.020625 -0.85625 2.04125 -1.8125 2.0625 C-5.00696214 2.62844359 -5.00696214 2.62844359 -6.06640625 4.625 C-6.79974771 6.38218533 -7.40775925 8.19037549 -8 10 C-8.33 10 -8.66 10 -9 10 C-9.36103152 3.6217765 -9.36103152 3.6217765 -7.875 1.0625 C-5.214973 -0.44484863 -2.99793795 -0.19986253 0 0 Z " fill="#B3822F" transform="translate(252,254)"/>
<path d="M0 0 C2.0625 0.4375 2.0625 0.4375 4 1 C4 2.65 4 4.3 4 6 C2.68 6.33 1.36 6.66 0 7 C-0.38133299 5.0085944 -0.71325582 3.00720923 -1 1 C-0.67 0.67 -0.34 0.34 0 0 Z " fill="#F1F2EF" transform="translate(290,114)"/>
<path d="M0 0 C0 3.3 0 6.6 0 10 C-0.99 10 -1.98 10 -3 10 C-3 7.03 -3 4.06 -3 1 C-1 0 -1 0 0 0 Z " fill="#C49F61" transform="translate(119,257)"/>
<path d="M0 0 C1.32 0 2.64 0 4 0 C4.33 1.65 4.66 3.3 5 5 C3.35 5.33 1.7 5.66 0 6 C0 4.02 0 2.04 0 0 Z " fill="#E3E4E1" transform="translate(91,114)"/>
<path d="M0 0 C0.99 0 1.98 0 3 0 C3 3.63 3 7.26 3 11 C2.34 11 1.68 11 1 11 C1 8.36 1 5.72 1 3 C0.34 3 -0.32 3 -1 3 C-0.67 2.01 -0.34 1.02 0 0 Z " fill="#2B3D38" transform="translate(301,112)"/>
<path d="M0 0 C2.64 0 5.28 0 8 0 C8 0.99 8 1.98 8 3 C5.03 3 2.06 3 -1 3 C-0.67 2.01 -0.34 1.02 0 0 Z " fill="#C59F60" transform="translate(279,264)"/>
<path d="M0 0 C3.625 -0.1875 3.625 -0.1875 7 0 C7 0.99 7 1.98 7 3 C4.03 3 1.06 3 -2 3 C-1.34 2.01 -0.68 1.02 0 0 Z " fill="#C7A367" transform="translate(126,264)"/>
<path d="M0 0 C3.4375 0.8125 3.4375 0.8125 7 2 C7.33 2.99 7.66 3.98 8 5 C5.69 4.67 3.38 4.34 1 4 C0.67 2.68 0.34 1.36 0 0 Z " fill="#BE9652" transform="translate(244,262)"/>
<path d="M0 0 C0.78375 0.04125 1.5675 0.0825 2.375 0.125 C2.375 0.785 2.375 1.445 2.375 2.125 C1.055 2.455 -0.265 2.785 -1.625 3.125 C-1.955 4.445 -2.285 5.765 -2.625 7.125 C-3.285 7.125 -3.945 7.125 -4.625 7.125 C-4.75 4.75 -4.75 4.75 -4.625 2.125 C-2.625 0.125 -2.625 0.125 0 0 Z " fill="#263A35" transform="translate(291.625,111.875)"/>
<path d="M0 0 C0.99 0 1.98 0 3 0 C2.8125 1.875 2.8125 1.875 2 4 C-0.5625 5.25 -0.5625 5.25 -3 6 C-1.125 1.125 -1.125 1.125 0 0 Z " fill="#B68737" transform="translate(116,254)"/>
<path d="M0 0 C0.66 0 1.32 0 2 0 C3.60355101 3.50776784 4.22036864 6.14354879 4 10 C1.49524183 7.49524183 0.04298164 5.92410524 -0.125 2.3125 C-0.08375 1.549375 -0.0425 0.78625 0 0 Z " fill="#B3832F" transform="translate(165,254)"/>
<path d="M0 0 C1.65 0 3.3 0 5 0 C5.33 1.65 5.66 3.3 6 5 C5.34 4.67 4.68 4.34 4 4 C4 3.34 4 2.68 4 2 C2.35 2.33 0.7 2.66 -1 3 C-0.67 2.01 -0.34 1.02 0 0 Z " fill="#293D38" transform="translate(276,112)"/>
<path d="M0 0 C0.66 0 1.32 0 2 0 C1.45276317 3.37462715 0.9451 5.08235 -1 8 C-1.93065133 5.39417629 -2.14917407 4.35801776 -1.0625 1.75 C-0.711875 1.1725 -0.36125 0.595 0 0 Z " fill="#B6883A" transform="translate(173,254)"/>
<path d="M0 0 C1.5 1.25 1.5 1.25 3 3 C3 4.32 3 5.64 3 7 C2.01 7 1.02 7 0 7 C-1.125 2.25 -1.125 2.25 0 0 Z " fill="#56605D" transform="translate(294,112)"/>
</svg>
